HIERARCHY
ROOT RootJoint
{
    OFFSET   0.000000   0.000000   0.000000
    CHANNELS 6 Xposition Yposition Zposition Xrotation Yrotation Zrotation
    JOINT lHip
    {
        OFFSET   0.100000  -0.051395   0.000000
        CHANNELS 3 Xrotation Yrotation Zrotation
        JOINT lKnee
        {
            OFFSET   0.000000  -0.410000   0.000000
            CHANNELS 3 Xrotation Yrotation Zrotation
            JOINT lAnkle
            {
                OFFSET   0.000000  -0.390000   0.000000
                CHANNELS 3 Xrotation Yrotation Zrotation
                JOINT lToeJoint
                {
                    OFFSET   0.000000  -0.050000   0.130000
                    CHANNELS 3 Xrotation Yrotation Zrotation
                    End Site
                    {
                        OFFSET   0.010000   0.002000   0.060000
                    }
                }
            }
        }
    }
    JOINT rHip
    {
        OFFSET  -0.100000  -0.051395   0.000000
        CHANNELS 3 Xrotation Yrotation Zrotation
        JOINT rKnee
        {
            OFFSET   0.000000  -0.410000   0.000000
            CHANNELS 3 Xrotation Yrotation Zrotation
            JOINT rAnkle
            {
                OFFSET   0.000000  -0.390000   0.000000
                CHANNELS 3 Xrotation Yrotation Zrotation
                JOINT rToeJoint
                {
                    OFFSET   0.000000  -0.050000   0.130000
                    CHANNELS 3 Xrotation Yrotation Zrotation
                    End Site
                    {
                        OFFSET  -0.010000   0.002000   0.060000
                    }
                }
            }
        }
    }
    JOINT pelvis_lowerback
    {
        OFFSET   0.000000   0.093605   0.000000
        CHANNELS 3 Xrotation Yrotation Zrotation
        JOINT lowerback_torso
        {
            OFFSET   0.000000   0.100000   0.000000
            CHANNELS 3 Xrotation Yrotation Zrotation
            JOINT torso_head
            {
                OFFSET   0.000000   0.282350   0.000000
                CHANNELS 3 Xrotation Yrotation Zrotation
                End Site
                {
                    OFFSET   0.000000   0.192650   0.000000
                }
            }
            JOINT lTorso_Clavicle
            {
                OFFSET   0.001000   0.157500   0.000000
                CHANNELS 3 Xrotation Yrotation Zrotation
                JOINT lShoulder
                {
                    OFFSET   0.117647   0.000000   0.000000
                    CHANNELS 3 Xrotation Yrotation Zrotation
                    JOINT lElbow
                    {
                        OFFSET   0.245000   0.000000   0.000000
                        CHANNELS 3 Xrotation Yrotation Zrotation
                        JOINT lWrist
                        {
                            OFFSET   0.240000   0.000000   0.000000
                            CHANNELS 3 Xrotation Yrotation Zrotation
                            End Site
                            {
                                OFFSET   0.116353  -0.002500   0.000000
                            }
                        }
                    }
                }
            }
            JOINT rTorso_Clavicle
            {
                OFFSET  -0.001000   0.157500   0.000000
                CHANNELS 3 Xrotation Yrotation Zrotation
                JOINT rShoulder
                {
                    OFFSET  -0.117647   0.000000   0.000000
                    CHANNELS 3 Xrotation Yrotation Zrotation
                    JOINT rElbow
                    {
                        OFFSET  -0.245000   0.000000   0.000000
                        CHANNELS 3 Xrotation Yrotation Zrotation
                        JOINT rWrist
                        {
                            OFFSET  -0.240000   0.000000   0.000000
                            CHANNELS 3 Xrotation Yrotation Zrotation
                            End Site
                            {
                                OFFSET  -0.116353  -0.002500   0.000000
                            }
                        }
                    }
                }
            }
        }
    }
}
MOTION
Frames: 14
Frame Time:   0.010000
  0.387705   0.904010  -0.271388   7.646783  -0.948277   4.211295  -8.158101  27.107998  24.758672  15.252440   0.000000   0.000000  19.969166  12.143755  -7.177419  -2.663880   0.000000   0.000000  -8.665445 -11.458093   4.325488  16.582520   0.000000   0.000000 -18.985484 -30.868823  13.011914  20.542500   0.000000   0.000000  -6.880654   8.395470  -5.507503   4.503840  -8.445661  -9.012121 -63.015418 -52.570282 -30.724567   8.162318  21.777609   4.376673 -48.539314  -2.496122 -23.304506  -0.000200 -42.029240  -0.000100  47.481203   2.942235  32.982587   7.468322 -18.116387 -10.142984 -59.145536  33.337129   7.880302  -0.000100  21.007520   0.000000  32.159783 -10.201278 -64.447517
  0.388249   0.905749  -0.271455   7.699647  -1.467714   4.457685  -7.481141  27.646784  24.218672  14.645880   0.000000   0.000000  20.504972  11.705307  -7.811408  -2.764880   0.000000   0.000000  -8.294266 -11.042991   4.145364  15.646360   0.000000   0.000000 -18.301378 -30.712528  13.539858  20.584380   0.000000   0.000000  -6.950637   8.246508  -5.505591   4.348425  -8.601163  -8.952718 -63.289129 -52.565780 -30.934774   8.175657  21.709669   4.620378 -48.038279  -2.385848 -23.150811  -0.000200 -41.034480  -0.000100  47.434677   2.791732  33.124476   7.391019 -18.169331 -10.130382 -59.527812  34.190165   8.316426  -0.000100  20.770760   0.000000  32.248654 -10.214842 -64.380705
  0.389459   0.907558  -0.271149   7.603600  -2.192200   4.948300  -6.471000  28.615000  23.354500  13.834900   0.000000   0.000000  21.218800  11.606900  -8.057500  -2.596200   0.000000   0.000000  -7.769500 -10.657900   3.654900  14.702300   0.000000   0.000000 -17.727500 -30.310500  14.271800  20.906600   0.000000   0.000000  -6.900300   8.181600  -5.609300   4.248700  -8.632300  -8.948400 -63.714402 -52.536677 -31.283150   7.889700  21.625000   4.836700 -47.157700  -2.444700 -22.911700  -0.000200 -40.018500  -0.000100  47.266000   2.703800  33.114500   7.449300 -18.291000 -10.019200 -59.857900  35.175000   8.562000  -0.000100  20.591100   0.000000  32.001800  -9.962400 -64.191800
  0.390314   0.909290  -0.270865   7.560683  -2.884013   5.316622  -5.537914  29.464889  22.588071  12.911000   0.000000   0.000000  22.599467  12.012102  -8.463040  -2.060820   0.000000   0.000000  -7.249613 -10.391078   3.299235  13.711300   0.000000   0.000000 -16.997909 -29.894899  15.007981  20.895980   0.000000   0.000000  -6.916717   8.030899  -5.652516   4.106514  -8.768332  -8.903488 -63.936176 -52.453185 -31.450099   7.967832  21.614463   5.055025 -46.673522  -2.299271 -22.735945  -0.000200 -38.988280  -0.000100  47.223099   2.493036  33.234081   7.380198 -18.319719 -10.040920 -60.244096  36.163121   9.031825  -0.000100  20.291480   0.000000  31.957128  -9.844265 -64.025046
  0.391193   0.911003  -0.270638   7.529655  -3.644712   5.683888  -4.572001  30.353968  21.782208  11.871640   0.000000   0.000000  24.591897  12.748432  -8.920770  -0.955380   0.000000   0.000000  -6.735986 -10.153822   2.944448  12.726420   0.000000   0.000000 -16.315432 -29.470367  15.639779  21.019580   0.000000   0.000000  -6.961471   7.902736  -5.692711   4.006066  -8.883251  -8.823011 -64.212542 -52.337037 -31.642376   7.870774  21.579674   5.317636 -46.049115  -2.160748 -22.559228  -0.000200 -37.952800  -0.000100  47.059068   2.198862  33.323492   7.377079 -18.351401  -9.980961 -60.540366  37.289224   9.328578  -0.000100  19.934720   0.000000  31.804950  -9.828427 -63.817915
  0.392172   0.912659  -0.270244   7.466260  -4.444854   6.084714  -3.446994  31.166556  20.850887  10.735780   0.000000   0.000000  27.014590  13.656643  -9.533426   0.848040   0.000000   0.000000  -6.195682 -10.120584   2.522674  11.773320   0.000000   0.000000 -15.672052 -28.938081  16.476394  21.129260   0.000000   0.000000  -7.005383   7.760896  -5.759255   3.940541  -9.002829  -8.719151 -64.484504 -52.168106 -31.832844   7.790275  21.548706   5.593263 -45.479410  -1.903198 -22.399084  -0.000200 -36.959020  -0.000100  46.877058   1.983836  33.529433   7.382658 -18.368560  -9.923061 -60.839274  38.477712   9.609151  -0.000100  19.521800   0.000000  31.691323  -9.819391 -63.690668
  0.393220   0.914212  -0.269681   7.369484  -5.283657   6.498037  -2.214713  31.959493  19.850177   9.523340   0.000000   0.000000  29.732536  14.397962  -9.928283   2.733360   0.000000   0.000000  -5.610110 -10.264715   2.065559  10.823680   0.000000   0.000000 -15.091258 -28.329800  17.472067  21.318860   0.000000   0.000000  -7.028550   7.612259  -5.833259   3.868267  -9.121391  -8.595594 -64.715586 -51.956578 -32.045517   7.693075  21.536628   5.873143 -44.936152  -1.575627 -22.264431  -0.000200 -36.017660  -0.000020  46.606629   1.879044  33.753974   7.381339 -18.395600  -9.877300 -61.167082  39.733021   9.935882  -0.000100  19.082080   0.000000  31.502047  -9.721898 -63.603845
  0.394562   0.915750  -0.268880   7.243200  -6.155100   6.977300  -0.817000  32.736300  18.670400   8.242200   0.000000   0.000000  32.528100  14.731500  -9.159900   3.791700   0.000000   0.000000  -4.999100 -10.738600   1.486100   9.908800   0.000000   0.000000 -14.512900 -27.354800  18.435100  21.097600   0.000000   0.000000  -7.083100   7.465600  -5.943800   3.900900  -9.227300  -8.428900 -65.021888 -51.700051 -32.309630   7.498900  21.429900   6.114300 -44.404000  -1.059800 -22.081900  -0.000100 -35.228600   0.000000  46.218400   1.911100  33.814200   7.317200 -18.488100  -9.828500 -61.639600  41.086900  10.390600  -0.000100  18.669300   0.000000  31.159400  -9.711900 -63.491600
  0.395958   0.917197  -0.267937   7.084824  -7.027788   7.412831   0.585814  33.554842  17.498767   6.922300   0.000000   0.000000  35.580603  14.725365  -7.419734   3.843780   0.000000   0.000000  -4.358242 -11.384802   0.914052   9.014700   0.000000   0.000000 -13.938359 -26.273401  20.084071  21.281720   0.000000   0.000000  -6.992951   7.283723  -6.016892   3.711683  -9.354916  -8.298302 -65.204724 -51.438379 -32.553822   7.508378  21.515739   6.229782 -44.128196  -0.740216 -21.955188  -0.000100 -34.327560   0.000000  45.958119   1.828460  33.917898   7.178240 -18.469243  -9.878200 -62.271053  42.223898  11.077319  -0.000100  18.408080   0.000000  31.002548  -9.658326 -63.424079
  0.397353   0.918554  -0.267148   6.959027  -7.869462   7.801708   1.856186  34.338281  16.399066   5.759740   0.000000   0.000000  38.617473  14.614722  -6.514644   4.416660   0.000000   0.000000  -3.785992 -12.095877   0.393484   8.146300   0.000000   0.000000 -13.377674 -25.137850  21.410655  20.966480   0.000000   0.000000  -6.936195   7.098641  -6.049294   3.551033  -9.498868  -8.150768 -65.455780 -51.192267 -32.840009   7.406312  21.535966   6.370689 -43.784802  -0.383587 -21.798082  -0.000100 -33.453280   0.000000  45.625365   1.708438  33.902679   7.063396 -18.452521  -9.898530 -63.098277  43.313776  11.860029  -0.000100  18.195880   0.000000  30.831197  -9.533983 -63.317608
  0.398771   0.919833  -0.266511   6.877679  -8.683331   8.170101   3.005414  35.035426  15.326579   4.801060   0.000000   0.000000  41.470210  14.608688  -6.671549   5.099820   0.000000   0.000000  -3.299480 -12.759393  -0.089222   7.298080   0.000000   0.000000 -12.850290 -24.138590  22.623360  20.491160   0.000000   0.000000  -6.894858   6.911560  -6.056549   3.385376  -9.655226  -8.012827 -65.774380 -50.961076 -33.180984   7.327526  21.594648   6.437773 -43.474317  -0.192463 -21.611989  -0.000100 -32.471920   0.000000  45.300866   1.538735  33.898097   6.963559 -18.390479  -9.896908 -64.011438  44.308618  12.640888  -0.000100  18.035860   0.000000  30.674368  -9.349024 -63.203500
  0.400176   0.920994  -0.266094   6.845853  -9.459994   8.512915   3.997317  35.661664  14.304925   4.017380   0.000000   0.000000  44.136626  14.842780  -7.628650   5.839020   0.000000   0.000000  -2.914875 -13.226098  -0.523039   6.510520   0.000000   0.000000 -12.369773 -23.289029  23.812719  20.102720   0.000000   0.000000  -6.887503   6.736080  -6.046739   3.221179  -9.810716  -7.861359 -66.139069 -50.786209 -33.510480   7.235879  21.602404   6.493741 -43.081464  -0.095651 -21.392790  -0.000100 -31.409720   0.000000  44.989556   1.291323  33.915360   6.864553 -18.289922  -9.908554 -64.937042  45.222198  13.396544  -0.000100  17.862020   0.000000  30.612731  -9.295074 -63.043300
  0.401607   0.922058  -0.265797   6.844900 -10.171400   8.840100   4.830800  36.263300  13.339200   3.426400   0.000000   0.000000  46.206300  15.376500  -9.246500   6.002400   0.000000   0.000000  -2.598600 -13.450200  -0.919800   5.778700   0.000000   0.000000 -11.907400 -22.609600  24.758700  19.903500   0.000000   0.000000  -6.881300   6.551500  -6.041500   3.076900  -9.974300  -7.697100 -66.634753 -50.647650 -33.881495   7.142300  21.645300   6.528700 -42.691100  -0.112000 -21.208500  -0.000100 -30.302900   0.000000  44.793600   1.245700  33.852300   6.733000 -18.178800  -9.918600 -65.761600  46.042700  14.044000  -0.000100  17.719700   0.000000  30.632500  -9.394700 -62.834700
  0.402966   0.922948  -0.265758   6.894855 -10.793515   9.122290   5.420424  36.876522  12.493927   3.005260   0.000000   0.000000  47.091635  16.291601 -10.134874   6.381680   0.000000   0.000000  -2.370111 -13.497276  -1.224242   5.081140   0.000000   0.000000 -11.501452 -22.197767  25.287495  19.942440   0.000000   0.000000  -6.880977   6.359243  -6.033492   2.924789 -10.147460  -7.515504 -67.212294 -50.537235 -34.300870   7.039661  21.649531   6.606299 -42.317299  -0.107721 -21.057398  -0.000100 -29.292580   0.000000  44.742279   0.932541  33.788838   6.546625 -18.067755  -9.978504 -66.491136  46.711367  14.653814  -0.000100  17.600300   0.000000  30.674118  -9.423621 -62.711462
